<?xml version="1.0" encoding="utf-8"?>
<!-- Generator: Adobe Illustrator 23.0.1, SVG Export Plug-In . SVG Version: 6.00 Build 0)  -->
<svg version="1.1" id="Capa_1" xmlns="http://www.w3.org/2000/svg" xmlns:xlink="http://www.w3.org/1999/xlink" x="0px" y="0px"
	 viewBox="0 0 26.9 37.3" style="enable-background:new 0 0 26.9 37.3;" xml:space="preserve">
<style type="text/css">
	.st0{fill-rule:evenodd;clip-rule:evenodd;fill:#FFFFFF;}
</style>
<g>
	<path class="st0" d="M22.7,10.1C22.7-2,4.2-2,4.2,10.1c0,1.8,8.3,19.5,9.2,22.3C14.5,29.6,22.7,11.9,22.7,10.1z M7.2,30.5h5.2
		c0.4,0.9,0.7,1.8,1,2.7c0.3-1,0.7-1.8,1.1-2.7h5.2l6.2,5.4H1L7.2,30.5z M13.5,7.3c1.4,0,2.5,1.1,2.5,2.5s-1.1,2.5-2.5,2.5
		c-1.3,0-2.5-1.1-2.5-2.5S12.1,7.3,13.5,7.3z"/>
</g>
</svg>
